<?xml version="1.0" encoding="UTF-8" standalone="no"?>
<!-- Created with Inkscape (http://www.inkscape.org/) -->

<svg
   xmlns:dc="http://purl.org/dc/elements/1.1/"
   xmlns:cc="http://creativecommons.org/ns#"
   xmlns:rdf="http://www.w3.org/1999/02/22-rdf-syntax-ns#"
   xmlns:svg="http://www.w3.org/2000/svg"
   xmlns="http://www.w3.org/2000/svg"
   xmlns:sodipodi="http://sodipodi.sourceforge.net/DTD/sodipodi-0.dtd"
   xmlns:inkscape="http://www.inkscape.org/namespaces/inkscape"
   width="744.09448819"
   height="1052.3622047"
   id="svg2"
   version="1.1"
   inkscape:version="0.48.4 r9939"
   sodipodi:docname="logo.svg">
  <defs
     id="defs4" />
  <sodipodi:namedview
     id="base"
     pagecolor="#ffffff"
     bordercolor="#666666"
     borderopacity="1.0"
     inkscape:pageopacity="0.0"
     inkscape:pageshadow="2"
     inkscape:zoom="0.64"
     inkscape:cx="1014.114"
     inkscape:cy="1045.757"
     inkscape:document-units="px"
     inkscape:current-layer="layer1"
     showgrid="false"
     showguides="true"
     inkscape:guide-bbox="true"
     inkscape:window-width="1366"
     inkscape:window-height="736"
     inkscape:window-x="0"
     inkscape:window-y="0"
     inkscape:window-maximized="1">
    <sodipodi:guide
       orientation="1,0"
       position="198.49498,506.5915"
       id="guide3863" />
    <sodipodi:guide
       orientation="0,1"
       position="228.29448,582.85802"
       id="guide3865" />
    <sodipodi:guide
       orientation="0,1"
       position="363.65492,455.07372"
       id="guide3867" />
    <sodipodi:guide
       orientation="1,0"
       position="326.27927,425.27422"
       id="guide3869" />
    <sodipodi:guide
       orientation="0,1"
       position="207.05357,445.04464"
       id="guide3871" />
    <sodipodi:guide
       orientation="1,0"
       position="188.4375,441.47322"
       id="guide3875" />
    <sodipodi:guide
       orientation="0,1"
       position="192.11839,592.89641"
       id="guide3877" />
    <sodipodi:guide
       orientation="1,0"
       position="336.29464,585.13393"
       id="guide3879" />
  </sodipodi:namedview>
  <metadata
     id="metadata7">
    <rdf:RDF>
      <cc:Work
         rdf:about="">
        <dc:format>image/svg+xml</dc:format>
        <dc:type
           rdf:resource="http://purl.org/dc/dcmitype/StillImage" />
        <dc:title></dc:title>
      </cc:Work>
    </rdf:RDF>
  </metadata>
  <g
     inkscape:label="Layer 1"
     inkscape:groupmode="layer"
     id="layer1">
    <g
       transform="translate(544.54213,469.68922)"
       id="g3039">
	<rect
   style="fill:#f7941e"
   width="96"
   height="96"
   x="16"
   y="16"
   id="rect3041" />

	<polygon
   style="fill:#fdb813"
   points="4,32 16,64 64,16 32,4 0,0 "
   id="polygon3043" />

	<polygon
   style="fill:#faa61a"
   points="32,124 64,112 16,64 4,96 0,128 "
   id="polygon3045" />

	<polygon
   style="fill:#f36f21"
   points="124,96 112,64 64,112 96,124 128,128 "
   id="polygon3047" />

	<polygon
   style="fill:#f58220"
   points="96,4 64,16 112,64 124,32 128,0 "
   id="polygon3049" />

	<polygon
   style="fill:#ffcb08"
   points="0,0 64,16 32,0 "
   id="polygon3051" />

	<polygon
   style="fill:#fff200"
   points="0,0 0,32 16,64 "
   id="polygon3053" />

	<polygon
   style="fill:#fff200"
   points="0,128 16,64 0,96 "
   id="polygon3055" />

	<polygon
   style="fill:#f4813c"
   points="0,128 32,128 64,112 "
   id="polygon3057" />

	<polygon
   style="fill:#f7941e"
   points="128,128 64,112 96,128 "
   id="polygon3059" />

	<polygon
   style="fill:#f15922"
   points="128,128 128,96 112,64 "
   id="polygon3061" />

	<polygon
   style="fill:#f15922"
   points="128,0 112,64 128,32 "
   id="polygon3063" />

	<polygon
   style="fill:#ffcb08"
   points="128,0 96,0 64,16 "
   id="polygon3065" />

</g>
    <g
       id="g3881"
       transform="translate(335.71429,-255.71429)">
      <rect
         y="459.4595"
         x="188.45035"
         height="147.98737"
         width="147.98734"
         id="rect3075"
         style="fill:#f7941e;fill-opacity:1;stroke:none" />
      <g
         transform="translate(-0.68283689,0)"
         id="g3845">
        <g
           id="g2987"
           transform="translate(199.06996,469.68922)"
           style="fill:#fdb813;fill-opacity:1">
	<rect
   id="rect2989"
   y="16"
   x="16"
   height="96"
   width="96"
   style="fill:#fdb813;fill-opacity:1" />

	<polygon
   id="polygon2991"
   points="4,32 16,64 64,16 32,4 0,0 "
   style="fill:#fdb813;fill-opacity:1" />

	<polygon
   id="polygon2993"
   points="32,124 64,112 16,64 4,96 0,128 "
   style="fill:#fdb813;fill-opacity:1" />

	<polygon
   id="polygon2995"
   points="124,96 112,64 64,112 96,124 128,128 "
   style="fill:#fdb813;fill-opacity:1" />

	<polygon
   id="polygon2997"
   points="96,4 64,16 112,64 124,32 128,0 "
   style="fill:#fdb813;fill-opacity:1" />

	<polygon
   id="polygon2999"
   points="0,0 64,16 32,0 "
   style="fill:#fdb813;fill-opacity:1" />

	<polygon
   id="polygon3001"
   points="0,0 0,32 16,64 "
   style="fill:#fdb813;fill-opacity:1" />

	<polygon
   id="polygon3003"
   points="0,128 16,64 0,96 "
   style="fill:#fdb813;fill-opacity:1" />

	<polygon
   id="polygon3005"
   points="0,128 32,128 64,112 "
   style="fill:#fdb813;fill-opacity:1" />

	<polygon
   id="polygon3007"
   points="128,128 64,112 96,128 "
   style="fill:#fdb813;fill-opacity:1" />

	<polygon
   id="polygon3009"
   points="128,128 128,96 112,64 "
   style="fill:#fdb813;fill-opacity:1" />

	<polygon
   id="polygon3011"
   points="128,0 112,64 128,32 "
   style="fill:#fdb813;fill-opacity:1" />

	<polygon
   id="polygon3013"
   points="128,0 96,0 64,16 "
   style="fill:#fdb813;fill-opacity:1" />

</g>
        <text
           xml:space="preserve"
           style="font-size:32.78512955px;font-style:normal;font-variant:normal;font-weight:normal;font-stretch:normal;line-height:125%;letter-spacing:0px;word-spacing:0px;fill:#f15922;fill-opacity:1;stroke:none;font-family:Ubuntu;-inkscape-font-specification:Ubuntu"
           x="281.28543"
           y="585.84052"
           id="text3067"
           sodipodi:linespacing="125%"><tspan
             sodipodi:role="line"
             id="tspan3069"
             x="281.28543"
             y="585.84052">HS</tspan></text>
      </g>
    </g>
    <g
       id="g4060"
       inkscape:export-xdpi="90"
       inkscape:export-ydpi="90">
      <rect
         style="fill:#f7941e;fill-opacity:1;stroke:none"
         id="rect3903"
         width="147.98734"
         height="147.98737"
         x="368.45035"
         y="203.74521" />
      <g
         id="g3907"
         transform="translate(378.38712,213.97493)"
         style="fill:#fdb813;fill-opacity:1">
	<rect
   id="rect3909"
   y="16"
   x="16"
   height="96"
   width="96"
   style="fill:#fdb813;fill-opacity:1" />

	<polygon
   id="polygon3911"
   points="4,32 16,64 64,16 32,4 0,0 "
   style="fill:#fdb813;fill-opacity:1" />

	<polygon
   id="polygon3913"
   points="32,124 64,112 16,64 4,96 0,128 "
   style="fill:#fdb813;fill-opacity:1" />

	<polygon
   id="polygon3915"
   points="124,96 112,64 64,112 96,124 128,128 "
   style="fill:#fdb813;fill-opacity:1" />

	<polygon
   id="polygon3917"
   points="96,4 64,16 112,64 124,32 128,0 "
   style="fill:#fdb813;fill-opacity:1" />

	<polygon
   id="polygon3919"
   points="32,0 0,0 64,16 "
   style="fill:#fdb813;fill-opacity:1" />

	<polygon
   id="polygon3921"
   points="16,64 0,0 0,32 "
   style="fill:#fdb813;fill-opacity:1" />

	<polygon
   id="polygon3923"
   points="0,96 0,128 16,64 "
   style="fill:#fdb813;fill-opacity:1" />

	<polygon
   id="polygon3925"
   points="64,112 0,128 32,128 "
   style="fill:#fdb813;fill-opacity:1" />

	<polygon
   id="polygon3927"
   points="96,128 128,128 64,112 "
   style="fill:#fdb813;fill-opacity:1" />

	<polygon
   id="polygon3929"
   points="112,64 128,128 128,96 "
   style="fill:#fdb813;fill-opacity:1" />

	<polygon
   id="polygon3931"
   points="128,32 128,0 112,64 "
   style="fill:#fdb813;fill-opacity:1" />

	<polygon
   id="polygon3933"
   points="64,16 128,0 96,0 "
   style="fill:#fdb813;fill-opacity:1" />

</g>
      <text
         xml:space="preserve"
         style="font-size:32.78512955000000062px;font-style:normal;font-variant:normal;font-weight:normal;font-stretch:normal;line-height:125%;letter-spacing:0px;word-spacing:0px;fill:#ffffff;fill-opacity:1;stroke:none;font-family:Ubuntu;-inkscape-font-specification:Ubuntu"
         x="460.6026"
         y="330.12622"
         id="text3935"
         sodipodi:linespacing="125%"><tspan
           sodipodi:role="line"
           id="tspan3937"
           x="460.6026"
           y="330.12622">HS</tspan></text>
    </g>
    <rect
       style="fill:#f7941e;fill-opacity:1;stroke:none"
       id="rect3973"
       width="147.98734"
       height="147.98737"
       x="368.45035"
       y="45.173779" />
    <g
       id="g3975"
       transform="translate(378.38712,55.403501)"
       style="fill:#fdb813;fill-opacity:1">
	<rect
   id="rect3977"
   y="16"
   x="16"
   height="96"
   width="96"
   style="fill:#fdb813;fill-opacity:1" />

	<polygon
   id="polygon3979"
   points="16,64 64,16 32,4 0,0 4,32 "
   style="fill:#fdb813;fill-opacity:1" />

	<polygon
   id="polygon3981"
   points="64,112 16,64 4,96 0,128 32,124 "
   style="fill:#fdb813;fill-opacity:1" />

	<polygon
   id="polygon3983"
   points="112,64 64,112 96,124 128,128 124,96 "
   style="fill:#fdb813;fill-opacity:1" />

	<polygon
   id="polygon3985"
   points="64,16 112,64 124,32 128,0 96,4 "
   style="fill:#fdb813;fill-opacity:1" />

	<polygon
   id="polygon3987"
   points="0,0 64,16 32,0 "
   style="fill:#fdb813;fill-opacity:1" />

	<polygon
   id="polygon3989"
   points="0,0 0,32 16,64 "
   style="fill:#fdb813;fill-opacity:1" />

	<polygon
   id="polygon3991"
   points="0,128 16,64 0,96 "
   style="fill:#fdb813;fill-opacity:1" />

	<polygon
   id="polygon3993"
   points="0,128 32,128 64,112 "
   style="fill:#fdb813;fill-opacity:1" />

	<polygon
   id="polygon3995"
   points="128,128 64,112 96,128 "
   style="fill:#fdb813;fill-opacity:1" />

	<polygon
   id="polygon3997"
   points="128,128 128,96 112,64 "
   style="fill:#fdb813;fill-opacity:1" />

	<polygon
   id="polygon3999"
   points="128,0 112,64 128,32 "
   style="fill:#fdb813;fill-opacity:1" />

	<polygon
   id="polygon4001"
   points="128,0 96,0 64,16 "
   style="fill:#fdb813;fill-opacity:1" />

</g>
    <text
       xml:space="preserve"
       style="font-size:32.78512955000000062px;font-style:normal;font-variant:normal;font-weight:normal;font-stretch:normal;line-height:125%;letter-spacing:0px;word-spacing:0px;fill:#000000;fill-opacity:1;stroke:none;font-family:Ubuntu;-inkscape-font-specification:Ubuntu"
       x="460.6026"
       y="171.55479"
       id="text4003"
       sodipodi:linespacing="125%"><tspan
         sodipodi:role="line"
         id="tspan4005"
         x="460.6026"
         y="171.55479">HS</tspan></text>
    <rect
       y="45.173779"
       x="525.5932"
       height="147.98737"
       width="147.98734"
       id="rect4007"
       style="fill:#f7941e;fill-opacity:1;stroke:none" />
    <g
       style="fill:#fdb813;fill-opacity:1"
       transform="translate(535.52998,55.403501)"
       id="g4009">
	<rect
   style="fill:#fdb813;fill-opacity:1"
   width="96"
   height="96"
   x="16"
   y="16"
   id="rect4011" />

	<polygon
   style="fill:#fdb813;fill-opacity:1"
   points="64,16 32,4 0,0 4,32 16,64 "
   id="polygon4013" />

	<polygon
   style="fill:#fdb813;fill-opacity:1"
   points="16,64 4,96 0,128 32,124 64,112 "
   id="polygon4015" />

	<polygon
   style="fill:#fdb813;fill-opacity:1"
   points="64,112 96,124 128,128 124,96 112,64 "
   id="polygon4017" />

	<polygon
   style="fill:#fdb813;fill-opacity:1"
   points="112,64 124,32 128,0 96,4 64,16 "
   id="polygon4019" />

	<polygon
   style="fill:#fdb813;fill-opacity:1"
   points="64,16 32,0 0,0 "
   id="polygon4021" />

	<polygon
   style="fill:#fdb813;fill-opacity:1"
   points="0,32 16,64 0,0 "
   id="polygon4023" />

	<polygon
   style="fill:#fdb813;fill-opacity:1"
   points="16,64 0,96 0,128 "
   id="polygon4025" />

	<polygon
   style="fill:#fdb813;fill-opacity:1"
   points="32,128 64,112 0,128 "
   id="polygon4027" />

	<polygon
   style="fill:#fdb813;fill-opacity:1"
   points="64,112 96,128 128,128 "
   id="polygon4029" />

	<polygon
   style="fill:#fdb813;fill-opacity:1"
   points="128,96 112,64 128,128 "
   id="polygon4031" />

	<polygon
   style="fill:#fdb813;fill-opacity:1"
   points="112,64 128,32 128,0 "
   id="polygon4033" />

	<polygon
   style="fill:#fdb813;fill-opacity:1"
   points="96,0 64,16 128,0 "
   id="polygon4035" />

</g>
    <text
       sodipodi:linespacing="125%"
       id="text4037"
       y="171.55479"
       x="617.74548"
       style="font-size:32.78512955000000062px;font-style:normal;font-variant:normal;font-weight:normal;font-stretch:normal;line-height:125%;letter-spacing:0px;word-spacing:0px;fill:#f7941e;fill-opacity:1;stroke:none;font-family:Ubuntu;-inkscape-font-specification:Ubuntu"
       xml:space="preserve"><tspan
         y="171.55479"
         x="617.74548"
         id="tspan4039"
         sodipodi:role="line">HS</tspan></text>
    <g
       inkscape:export-ydpi="90"
       inkscape:export-xdpi="90"
       id="g4079"
       transform="matrix(1.6893338,0,0,1.6893338,534.5861,-571.03267)">
      <rect
         y="203.74521"
         x="368.45035"
         height="147.98737"
         width="147.98734"
         id="rect4081"
         style="fill:#f7941e;fill-opacity:1;stroke:none" />
      <g
         style="fill:#fdb813;fill-opacity:1"
         transform="translate(378.38712,213.97493)"
         id="g4083">
	<rect
   style="fill:#fdb813;fill-opacity:1"
   width="96"
   height="96"
   x="16"
   y="16"
   id="rect4085" />

	<polygon
   style="fill:#fdb813;fill-opacity:1"
   points="32,4 0,0 4,32 16,64 64,16 "
   id="polygon4087" />

	<polygon
   style="fill:#fdb813;fill-opacity:1"
   points="4,96 0,128 32,124 64,112 16,64 "
   id="polygon4089" />

	<polygon
   style="fill:#fdb813;fill-opacity:1"
   points="96,124 128,128 124,96 112,64 64,112 "
   id="polygon4091" />

	<polygon
   style="fill:#fdb813;fill-opacity:1"
   points="124,32 128,0 96,4 64,16 112,64 "
   id="polygon4093" />

	<polygon
   style="fill:#fdb813;fill-opacity:1"
   points="32,0 0,0 64,16 "
   id="polygon4095" />

	<polygon
   style="fill:#fdb813;fill-opacity:1"
   points="16,64 0,0 0,32 "
   id="polygon4097" />

	<polygon
   style="fill:#fdb813;fill-opacity:1"
   points="0,96 0,128 16,64 "
   id="polygon4099" />

	<polygon
   style="fill:#fdb813;fill-opacity:1"
   points="64,112 0,128 32,128 "
   id="polygon4101" />

	<polygon
   style="fill:#fdb813;fill-opacity:1"
   points="96,128 128,128 64,112 "
   id="polygon4103" />

	<polygon
   style="fill:#fdb813;fill-opacity:1"
   points="112,64 128,128 128,96 "
   id="polygon4105" />

	<polygon
   style="fill:#fdb813;fill-opacity:1"
   points="128,32 128,0 112,64 "
   id="polygon4107" />

	<polygon
   style="fill:#fdb813;fill-opacity:1"
   points="64,16 128,0 96,0 "
   id="polygon4109" />

</g>
      <text
         sodipodi:linespacing="125%"
         id="text4111"
         y="330.12622"
         x="460.6026"
         style="font-size:32.78512955px;font-style:normal;font-variant:normal;font-weight:normal;font-stretch:normal;line-height:125%;letter-spacing:0px;word-spacing:0px;fill:#ffffff;fill-opacity:1;stroke:none;font-family:Ubuntu;-inkscape-font-specification:Ubuntu"
         xml:space="preserve"><tspan
           y="330.12622"
           x="460.6026"
           id="tspan4113"
           sodipodi:role="line">HS</tspan></text>
    </g>
  </g>
</svg>
