<?xml version="1.0" encoding="UTF-8" standalone="no"?>
<!-- Created with Inkscape (http://www.inkscape.org/) -->

<svg
   xmlns:dc="http://purl.org/dc/elements/1.1/"
   xmlns:cc="http://creativecommons.org/ns#"
   xmlns:rdf="http://www.w3.org/1999/02/22-rdf-syntax-ns#"
   xmlns:svg="http://www.w3.org/2000/svg"
   xmlns="http://www.w3.org/2000/svg"
   xmlns:sodipodi="http://sodipodi.sourceforge.net/DTD/sodipodi-0.dtd"
   xmlns:inkscape="http://www.inkscape.org/namespaces/inkscape"
   width="744.09448819"
   height="1052.3622047"
   id="svg2"
   version="1.1"
   inkscape:version="0.48.4 r9939"
   sodipodi:docname="haxeide.svg">
  <defs
     id="defs4">
    <clipPath
       id="Clip2">
      <path
         id="path3097"
         transform="translate(100.135, 55.5141)"
         d="M45.0772 124.589 C-16.4525 90.1666 -3.27917 -0.09507 -3.27917 -0.09507 C22.9591 12.482 44.5352 -0.06137 44.5352 -0.06137 C44.5352 -0.06137 67.0333 12.8072 92.4571 -0.52867 C92.4571 -0.52867 106.877 89.4615 45.0772 124.589 Z" />
    </clipPath>
    <clipPath
       id="Clip1">
      <path
         id="path3094"
         transform="translate(100.135, 55.5141)"
         d="M45.0772 124.589 C-16.4525 90.1666 -3.27917 -0.09507 -3.27917 -0.09507 C22.9591 12.482 44.5352 -0.06137 44.5352 -0.06137 C44.5352 -0.06137 67.0333 12.8072 92.4571 -0.52867 C92.4571 -0.52867 106.877 89.4615 45.0772 124.589 Z" />
    </clipPath>
    <clipPath
       id="Clip0">
      <path
         id="path3091"
         transform="translate(0, 0)"
         d="M0 0 L288 0 L288 288.001 L0 288.001 L0 0 Z" />
    </clipPath>
  </defs>
  <sodipodi:namedview
     id="base"
     pagecolor="#ffffff"
     bordercolor="#666666"
     borderopacity="1.0"
     inkscape:pageopacity="0.0"
     inkscape:pageshadow="2"
     inkscape:zoom="0.98994949"
     inkscape:cx="133.84424"
     inkscape:cy="484.31559"
     inkscape:document-units="px"
     inkscape:current-layer="layer1"
     showgrid="false"
     showguides="true"
     inkscape:guide-bbox="true"
     inkscape:window-width="1366"
     inkscape:window-height="709"
     inkscape:window-x="0"
     inkscape:window-y="27"
     inkscape:window-maximized="1" />
  <metadata
     id="metadata7">
    <rdf:RDF>
      <cc:Work
         rdf:about="">
        <dc:format>image/svg+xml</dc:format>
        <dc:type
           rdf:resource="http://purl.org/dc/dcmitype/StillImage" />
        <dc:title></dc:title>
      </cc:Work>
    </rdf:RDF>
  </metadata>
  <g
     inkscape:label="Layer 1"
     inkscape:groupmode="layer"
     id="layer1">
    <rect
       style="fill:#800000;fill-opacity:1;stroke:none"
       id="rect3055"
       width="524.28571"
       height="488.57144"
       x="-728.57141"
       y="451.64789"
       rx="7.0845456"
       ry="14.805195" />
    <g
       id="g3149"
       inkscape:export-filename="/run/media/pah/DATA/hide-development/a/hide-logo.png"
       inkscape:export-xdpi="90"
       inkscape:export-ydpi="90">
      <g
         transform="translate(-0.80357143,-3.9143411)"
         id="g3122">
        <text
           sodipodi:linespacing="125%"
           id="text3041"
           y="590.20514"
           x="311.94644"
           style="font-size:105.40840912px;font-style:normal;font-variant:normal;font-weight:normal;font-stretch:normal;line-height:125%;letter-spacing:0px;word-spacing:0px;fill:#000000;fill-opacity:1;stroke:none;font-family:Ubuntu;-inkscape-font-specification:Ubuntu"
           xml:space="preserve"><tspan
             style="font-style:normal;font-variant:normal;font-weight:normal;font-stretch:normal;font-family:Roboto;-inkscape-font-specification:Roboto"
             y="590.20514"
             x="311.94644"
             id="tspan3043"
             sodipodi:role="line">IDE</tspan></text>
        <text
           xml:space="preserve"
           style="font-size:105.40840912px;font-style:normal;font-variant:normal;font-weight:normal;font-stretch:normal;line-height:125%;letter-spacing:0px;word-spacing:0px;fill:#ffffff;fill-opacity:1;stroke:none;font-family:Ubuntu;-inkscape-font-specification:Ubuntu"
           x="307.94644"
           y="586.20514"
           id="text3045"
           sodipodi:linespacing="125%"><tspan
             sodipodi:role="line"
             id="tspan3047"
             x="307.94644"
             y="586.20514"
             style="font-style:normal;font-variant:normal;font-weight:normal;font-stretch:normal;fill:#ffffff;font-family:Roboto;-inkscape-font-specification:Roboto">IDE</tspan></text>
      </g>
      <g
         transform="translate(0,-1.767767)"
         id="g3116">
        <text
           xml:space="preserve"
           style="font-size:104.98212433px;font-style:normal;font-variant:normal;font-weight:normal;font-stretch:normal;line-height:125%;letter-spacing:0px;word-spacing:0px;fill:#000000;fill-opacity:1;stroke:none;font-family:Ubuntu;-inkscape-font-specification:Ubuntu"
           x="312.03366"
           y="498.56039"
           id="text3035"
           sodipodi:linespacing="125%"><tspan
             sodipodi:role="line"
             id="tspan3037"
             x="312.03366"
             y="498.56039"
             style="font-style:normal;font-variant:normal;font-weight:normal;font-stretch:normal;font-family:Roboto;-inkscape-font-specification:Roboto">HAXE</tspan></text>
        <text
           sodipodi:linespacing="125%"
           id="text3049"
           y="494.56039"
           x="308.03366"
           style="font-size:104.98212433px;font-style:normal;font-variant:normal;font-weight:normal;font-stretch:normal;line-height:125%;letter-spacing:0px;word-spacing:0px;fill:#ffffff;fill-opacity:1;stroke:none;font-family:Ubuntu;-inkscape-font-specification:Ubuntu"
           xml:space="preserve"><tspan
             style="font-style:normal;font-variant:normal;font-weight:normal;font-stretch:normal;fill:#ffffff;font-family:Roboto;-inkscape-font-specification:Roboto"
             y="494.56039"
             x="308.03366"
             id="tspan3051"
             sodipodi:role="line">HAXE</tspan></text>
      </g>
      <g
         id="g3119">
        <g
           transform="matrix(1.2845982,0,0,1.2845982,105.83412,422.05616)"
           id="g3057"
           style="fill:#000000">
          <rect
             style="fill:#000000"
             width="96"
             height="96"
             x="16"
             y="16"
             id="rect3059" />
          <polygon
             style="fill:#000000"
             points="32,4 0,0 4,32 16,64 64,16 "
             id="polygon3061" />
          <polygon
             style="fill:#000000"
             points="4,96 0,128 32,124 64,112 16,64 "
             id="polygon3063" />
          <polygon
             style="fill:#000000"
             points="96,124 128,128 124,96 112,64 64,112 "
             id="polygon3065" />
          <polygon
             style="fill:#000000"
             points="124,32 128,0 96,4 64,16 112,64 "
             id="polygon3067" />
          <polygon
             style="fill:#000000"
             points="32,0 0,0 64,16 "
             id="polygon3069" />
          <polygon
             style="fill:#000000"
             points="16,64 0,0 0,32 "
             id="polygon3071" />
          <polygon
             style="fill:#000000"
             points="0,96 0,128 16,64 "
             id="polygon3073" />
          <polygon
             style="fill:#000000"
             points="64,112 0,128 32,128 "
             id="polygon3075" />
          <polygon
             style="fill:#000000"
             points="96,128 128,128 64,112 "
             id="polygon3077" />
          <polygon
             style="fill:#000000"
             points="112,64 128,128 128,96 "
             id="polygon3079" />
          <polygon
             style="fill:#000000"
             points="128,32 128,0 112,64 "
             id="polygon3081" />
          <polygon
             style="fill:#000000"
             points="64,16 128,0 96,0 "
             id="polygon3083" />
        </g>
        <g
           id="g2987"
           transform="matrix(1.2845982,0,0,1.2845982,101.83412,418.05616)">
          <rect
             id="rect2989"
             y="16"
             x="16"
             height="96"
             width="96"
             style="fill:#f7941e" />
          <polygon
             id="polygon2991"
             points="32,4 0,0 4,32 16,64 64,16 "
             style="fill:#fdb813" />
          <polygon
             id="polygon2993"
             points="4,96 0,128 32,124 64,112 16,64 "
             style="fill:#faa61a" />
          <polygon
             id="polygon2995"
             points="96,124 128,128 124,96 112,64 64,112 "
             style="fill:#f36f21" />
          <polygon
             id="polygon2997"
             points="124,32 128,0 96,4 64,16 112,64 "
             style="fill:#f58220" />
          <polygon
             id="polygon2999"
             points="32,0 0,0 64,16 "
             style="fill:#ffcb08" />
          <polygon
             id="polygon3001"
             points="16,64 0,0 0,32 "
             style="fill:#fff200" />
          <polygon
             id="polygon3003"
             points="0,96 0,128 16,64 "
             style="fill:#fff200" />
          <polygon
             id="polygon3005"
             points="64,112 0,128 32,128 "
             style="fill:#f4813c" />
          <polygon
             id="polygon3007"
             points="96,128 128,128 64,112 "
             style="fill:#f7941e" />
          <polygon
             id="polygon3009"
             points="112,64 128,128 128,96 "
             style="fill:#f15922" />
          <polygon
             id="polygon3011"
             points="128,32 128,0 112,64 "
             style="fill:#f15922" />
          <polygon
             id="polygon3013"
             points="64,16 128,0 96,0 "
             style="fill:#ffcb08" />
        </g>
      </g>
    </g>
    <g
       id="g3343"
       transform="matrix(-0.49023183,-0.13135722,-0.13135722,0.49023183,439.44164,367.62128)"
       inkscape:export-xdpi="90"
       inkscape:export-ydpi="90">
      <path
         id="path3105"
         d="m 372.875,604.90625 c -1.27931,0.0333 -2.03125,0.15625 -2.03125,0.15625 1.6775,22.464 25,24.90625 25,24.90625 13.01,11.38426 19.90625,24.375 19.90625,24.375 -3.05,-1.2195 -4.65625,-3.03125 -4.65625,-3.03125 -12.655,-20.53212 -33.84375,-17.09375 -33.84375,-17.09375 8.58875,23.22637 34.125,23.0625 34.125,23.0625 7.065,0.35587 8.96875,5.1875 8.96875,5.1875 5.895,9.75826 9.9375,28.15625 9.9375,28.15625 -1.62625,-1.62663 -3.75,-4.21875 -3.75,-4.21875 -9.86,-26.88475 -30.6875,-25.84375 -30.6875,-25.84375 6.40375,26.73288 27.21875,28.34375 27.21875,28.34375 3.8625,0.8135 8.03125,6.5 8.03125,6.5 2.3375,15.95825 1.34375,28.96875 1.34375,28.96875 -0.10125,-1.01675 -1.75,-3.96875 -1.75,-3.96875 -1.52375,-2.84613 -2.3125,-9.03125 -2.3125,-9.03125 -3.65875,-18.80425 -21.0625,-22.0625 -21.0625,-22.0625 -3.40375,24.29325 21.875,33.40625 21.875,33.40625 7.115,6.303 -2.96875,34 -2.96875,34 -0.2025,-1.01625 -0.59375,-4.78125 -0.59375,-4.78125 2.18625,-29.12163 -20.03125,-33.25 -20.03125,-33.25 -0.15375,13.92538 2.125,18.71875 2.125,18.71875 2.18625,6.3025 13.3125,14.40625 13.3125,14.40625 2.745,2.6425 3.6875,7.21875 3.6875,7.21875 C 422.99125,770.71875 406.625,793 406.625,793 c -0.2025,-4.98 1.625,-8.34375 1.625,-8.34375 11.6875,-21.1425 -2.96875,-34.96875 -2.96875,-34.96875 -14.23,18.805 -1.8125,33.25 -1.8125,33.25 1.93125,3.5575 1.09375,12.6875 1.09375,12.6875 -4.675,7.015 -21.03125,20.65625 -21.03125,20.65625 l 0.0937,-0.625 c 2.0325,-6.20125 3.96875,-8.4375 3.96875,-8.4375 13.62,-15.95875 0.3125,-34.96875 0.3125,-34.96875 -12.60375,14.18 -7.21875,31.40625 -7.21875,31.40625 3.455,8.1825 -0.3125,13.9375 -0.3125,13.9375 -6.25125,7.41875 -25.71875,15.75 -25.71875,15.75 3.355,-3.96375 7.4375,-7.71875 7.4375,-7.71875 14.6375,-11.63875 7.21875,-32.53125 7.21875,-32.53125 -19.05875,10.72375 -14.34375,32.9375 -14.34375,32.9375 -0.60875,8.03 -6.28125,10.0625 -6.28125,10.0625 -8.335,3.6575 -20.34375,6.1875 -20.34375,6.1875 1.21875,-2.23625 3.34375,-2.9375 3.34375,-2.9375 20.73625,-11.68875 14.65625,-29.78125 14.65625,-29.78125 -19.61625,7.5225 -19.125,29.46875 -19.125,29.46875 -0.13608,2.98706 -1.83968,4.04763 -2.96875,4.4375 l 0,4.96875 c 5.01269,1.28942 11.3125,5.25 11.3125,5.25 25.615,13.62 38.53125,-2.75 38.53125,-2.75 -15.755,-12.60375 -29.5,-4.78125 -29.5,-4.78125 -10.3675,4.47375 -16.75,0.5 -16.75,0.5 6.2,-0.91625 26,-8.53125 26,-8.53125 2.6425,-1.0175 16.59375,1.3125 16.59375,1.3125 33.34,8.335 42.375,-10.0625 42.375,-10.0625 -18.09375,-11.99375 -42.375,5 -42.375,5 -4.57375,1.93125 -11,1.09375 -11,1.09375 10.265,-3.8625 26.9375,-16.5625 26.9375,-16.5625 3.355,-2.3375 16.78125,-1.625 16.78125,-1.625 30.08875,-0.10125 34.25,-23.15625 34.25,-23.15625 -26.0225,-0.61125 -34.0625,16.4375 -34.0625,16.4375 -2.54125,5.28625 -13.1875,5.40625 -13.1875,5.40625 9.555,-7.72625 20.625,-21.84375 20.625,-21.84375 4.4725,-2.3375 13.71875,-3.15625 13.71875,-3.15625 28.56125,-6.81 28.15625,-32.625 28.15625,-32.625 -20.635,2.0325 -31,27.625 -31,27.625 -4.37125,4.8775 -9.0625,5.59375 -9.0625,5.59375 4.98,-5.285 14.75,-26.21875 14.75,-26.21875 2.6425,-5.3875 15.75,-12 15.75,-12 C 464.49125,741.96 458.25,718.5 458.25,718.5 c -17.63625,9.708 -19.125,24.375 -19.125,24.375 -1.52375,12.29875 -9.53125,15.875 -9.53125,15.875 2.845,-4.7775 5.6875,-24.40625 5.6875,-24.40625 C 437.41625,728.55 446.46875,719 446.46875,719 c 3.2525,-3.15062 7.8125,-8.4375 7.8125,-8.4375 C 464.64875,698.66975 455,678.25 455,678.25 c -17.28,15.14525 -13.625,38.09375 -13.625,38.09375 -0.1025,5.18437 -5.375,12 -5.375,12 2.23625,-12.50262 -1.125,-34.0625 -1.125,-34.0625 l 1.40625,-4.5625 2.03125,-5.375 c 2.0325,-5.387 3.25,-6.3125 3.25,-6.3125 15.24625,-16.06025 -1.625,-37 -1.625,-37 -5.18375,6.20062 -7.8125,17.59375 -7.8125,17.59375 -1.83,9.148 3.25,22.34375 3.25,22.34375 0.8125,3.35387 -1.53125,8.65625 -1.53125,8.65625 -2.74375,-18.29588 -13.5,-35.78125 -13.5,-35.78125 0.1025,-3.45638 1.90625,-5.5 1.90625,-5.5 10.215,-17.99125 -8.3125,-38.71875 -8.3125,-38.71875 -7.82625,24.80162 3.34375,36.6875 3.34375,36.6875 3.55875,4.26874 2.34375,6.71875 2.34375,6.71875 -10.47,-17.8895 -22.25,-26.53125 -22.25,-26.53125 -3.79945,-20.23359 -18.95634,-21.73791 -24.5,-21.59375 z"
         style="fill:#ffec00;fill-rule:nonzero;stroke:none"
         inkscape:connector-curvature="0" />
      <path
         transform="matrix(1,0,0,1.1832706,-1.1522053,-155.30303)"
         d="m 326.91061,846.1806 c 0,1.15937 -0.67133,2.09923 -1.49945,2.09923 -0.82812,0 -1.49944,-0.93986 -1.49944,-2.09923 0,-1.15937 0.67132,-2.09922 1.49944,-2.09922 0.82812,0 1.49945,0.93985 1.49945,2.09922 z"
         sodipodi:ry="2.0992234"
         sodipodi:rx="1.4994452"
         sodipodi:cy="846.1806"
         sodipodi:cx="325.41116"
         id="path3339"
         style="fill:#ffec00;fill-opacity:1;stroke:none"
         sodipodi:type="arc" />
    </g>
    <g
       transform="matrix(-0.49023183,-0.13135722,-0.13135722,0.49023183,439.44164,509.04985)"
       id="g3359"
       style="fill:#ececec;fill-opacity:1"
       inkscape:export-xdpi="90"
       inkscape:export-ydpi="90">
      <path
         inkscape:connector-curvature="0"
         style="fill:#ececec;fill-opacity:1;fill-rule:nonzero;stroke:none"
         d="m 372.875,604.90625 c -1.27931,0.0333 -2.03125,0.15625 -2.03125,0.15625 1.6775,22.464 25,24.90625 25,24.90625 13.01,11.38426 19.90625,24.375 19.90625,24.375 -3.05,-1.2195 -4.65625,-3.03125 -4.65625,-3.03125 -12.655,-20.53212 -33.84375,-17.09375 -33.84375,-17.09375 8.58875,23.22637 34.125,23.0625 34.125,23.0625 7.065,0.35587 8.96875,5.1875 8.96875,5.1875 5.895,9.75826 9.9375,28.15625 9.9375,28.15625 -1.62625,-1.62663 -3.75,-4.21875 -3.75,-4.21875 -9.86,-26.88475 -30.6875,-25.84375 -30.6875,-25.84375 6.40375,26.73288 27.21875,28.34375 27.21875,28.34375 3.8625,0.8135 8.03125,6.5 8.03125,6.5 2.3375,15.95825 1.34375,28.96875 1.34375,28.96875 -0.10125,-1.01675 -1.75,-3.96875 -1.75,-3.96875 -1.52375,-2.84613 -2.3125,-9.03125 -2.3125,-9.03125 -3.65875,-18.80425 -21.0625,-22.0625 -21.0625,-22.0625 -3.40375,24.29325 21.875,33.40625 21.875,33.40625 7.115,6.303 -2.96875,34 -2.96875,34 -0.2025,-1.01625 -0.59375,-4.78125 -0.59375,-4.78125 2.18625,-29.12163 -20.03125,-33.25 -20.03125,-33.25 -0.15375,13.92538 2.125,18.71875 2.125,18.71875 2.18625,6.3025 13.3125,14.40625 13.3125,14.40625 2.745,2.6425 3.6875,7.21875 3.6875,7.21875 C 422.99125,770.71875 406.625,793 406.625,793 c -0.2025,-4.98 1.625,-8.34375 1.625,-8.34375 11.6875,-21.1425 -2.96875,-34.96875 -2.96875,-34.96875 -14.23,18.805 -1.8125,33.25 -1.8125,33.25 1.93125,3.5575 1.09375,12.6875 1.09375,12.6875 -4.675,7.015 -21.03125,20.65625 -21.03125,20.65625 l 0.0937,-0.625 c 2.0325,-6.20125 3.96875,-8.4375 3.96875,-8.4375 13.62,-15.95875 0.3125,-34.96875 0.3125,-34.96875 -12.60375,14.18 -7.21875,31.40625 -7.21875,31.40625 3.455,8.1825 -0.3125,13.9375 -0.3125,13.9375 -6.25125,7.41875 -25.71875,15.75 -25.71875,15.75 3.355,-3.96375 7.4375,-7.71875 7.4375,-7.71875 14.6375,-11.63875 7.21875,-32.53125 7.21875,-32.53125 -19.05875,10.72375 -14.34375,32.9375 -14.34375,32.9375 -0.60875,8.03 -6.28125,10.0625 -6.28125,10.0625 -8.335,3.6575 -20.34375,6.1875 -20.34375,6.1875 1.21875,-2.23625 3.34375,-2.9375 3.34375,-2.9375 20.73625,-11.68875 14.65625,-29.78125 14.65625,-29.78125 -19.61625,7.5225 -19.125,29.46875 -19.125,29.46875 -0.13608,2.98706 -1.83968,4.04763 -2.96875,4.4375 l 0,4.96875 c 5.01269,1.28942 11.3125,5.25 11.3125,5.25 25.615,13.62 38.53125,-2.75 38.53125,-2.75 -15.755,-12.60375 -29.5,-4.78125 -29.5,-4.78125 -10.3675,4.47375 -16.75,0.5 -16.75,0.5 6.2,-0.91625 26,-8.53125 26,-8.53125 2.6425,-1.0175 16.59375,1.3125 16.59375,1.3125 33.34,8.335 42.375,-10.0625 42.375,-10.0625 -18.09375,-11.99375 -42.375,5 -42.375,5 -4.57375,1.93125 -11,1.09375 -11,1.09375 10.265,-3.8625 26.9375,-16.5625 26.9375,-16.5625 3.355,-2.3375 16.78125,-1.625 16.78125,-1.625 30.08875,-0.10125 34.25,-23.15625 34.25,-23.15625 -26.0225,-0.61125 -34.0625,16.4375 -34.0625,16.4375 -2.54125,5.28625 -13.1875,5.40625 -13.1875,5.40625 9.555,-7.72625 20.625,-21.84375 20.625,-21.84375 4.4725,-2.3375 13.71875,-3.15625 13.71875,-3.15625 28.56125,-6.81 28.15625,-32.625 28.15625,-32.625 -20.635,2.0325 -31,27.625 -31,27.625 -4.37125,4.8775 -9.0625,5.59375 -9.0625,5.59375 4.98,-5.285 14.75,-26.21875 14.75,-26.21875 2.6425,-5.3875 15.75,-12 15.75,-12 C 464.49125,741.96 458.25,718.5 458.25,718.5 c -17.63625,9.708 -19.125,24.375 -19.125,24.375 -1.52375,12.29875 -9.53125,15.875 -9.53125,15.875 2.845,-4.7775 5.6875,-24.40625 5.6875,-24.40625 C 437.41625,728.55 446.46875,719 446.46875,719 c 3.2525,-3.15062 7.8125,-8.4375 7.8125,-8.4375 C 464.64875,698.66975 455,678.25 455,678.25 c -17.28,15.14525 -13.625,38.09375 -13.625,38.09375 -0.1025,5.18437 -5.375,12 -5.375,12 2.23625,-12.50262 -1.125,-34.0625 -1.125,-34.0625 l 1.40625,-4.5625 2.03125,-5.375 c 2.0325,-5.387 3.25,-6.3125 3.25,-6.3125 15.24625,-16.06025 -1.625,-37 -1.625,-37 -5.18375,6.20062 -7.8125,17.59375 -7.8125,17.59375 -1.83,9.148 3.25,22.34375 3.25,22.34375 0.8125,3.35387 -1.53125,8.65625 -1.53125,8.65625 -2.74375,-18.29588 -13.5,-35.78125 -13.5,-35.78125 0.1025,-3.45638 1.90625,-5.5 1.90625,-5.5 10.215,-17.99125 -8.3125,-38.71875 -8.3125,-38.71875 -7.82625,24.80162 3.34375,36.6875 3.34375,36.6875 3.55875,4.26874 2.34375,6.71875 2.34375,6.71875 -10.47,-17.8895 -22.25,-26.53125 -22.25,-26.53125 -3.79945,-20.23359 -18.95634,-21.73791 -24.5,-21.59375 z"
         id="path3361" />
      <path
         sodipodi:type="arc"
         style="fill:#ececec;fill-opacity:1;stroke:none"
         id="path3363"
         sodipodi:cx="325.41116"
         sodipodi:cy="846.1806"
         sodipodi:rx="1.4994452"
         sodipodi:ry="2.0992234"
         d="m 326.91061,846.1806 c 0,1.15937 -0.67133,2.09923 -1.49945,2.09923 -0.82812,0 -1.49944,-0.93986 -1.49944,-2.09923 0,-1.15937 0.67132,-2.09922 1.49944,-2.09922 0.82812,0 1.49945,0.93985 1.49945,2.09922 z"
         transform="matrix(1,0,0,1.1832706,-1.1522053,-155.30303)" />
    </g>
    <g
       transform="matrix(0.49023183,0.13135722,0.13135722,-0.49023183,-7.3784794,987.2195)"
       id="g3382"
       inkscape:export-xdpi="90"
       inkscape:export-ydpi="90">
      <path
         inkscape:connector-curvature="0"
         style="fill:#ffec00;fill-rule:nonzero;stroke:none"
         d="m 372.875,604.90625 c -1.27931,0.0333 -2.03125,0.15625 -2.03125,0.15625 1.6775,22.464 25,24.90625 25,24.90625 13.01,11.38426 19.90625,24.375 19.90625,24.375 -3.05,-1.2195 -4.65625,-3.03125 -4.65625,-3.03125 -12.655,-20.53212 -33.84375,-17.09375 -33.84375,-17.09375 8.58875,23.22637 34.125,23.0625 34.125,23.0625 7.065,0.35587 8.96875,5.1875 8.96875,5.1875 5.895,9.75826 9.9375,28.15625 9.9375,28.15625 -1.62625,-1.62663 -3.75,-4.21875 -3.75,-4.21875 -9.86,-26.88475 -30.6875,-25.84375 -30.6875,-25.84375 6.40375,26.73288 27.21875,28.34375 27.21875,28.34375 3.8625,0.8135 8.03125,6.5 8.03125,6.5 2.3375,15.95825 1.34375,28.96875 1.34375,28.96875 -0.10125,-1.01675 -1.75,-3.96875 -1.75,-3.96875 -1.52375,-2.84613 -2.3125,-9.03125 -2.3125,-9.03125 -3.65875,-18.80425 -21.0625,-22.0625 -21.0625,-22.0625 -3.40375,24.29325 21.875,33.40625 21.875,33.40625 7.115,6.303 -2.96875,34 -2.96875,34 -0.2025,-1.01625 -0.59375,-4.78125 -0.59375,-4.78125 2.18625,-29.12163 -20.03125,-33.25 -20.03125,-33.25 -0.15375,13.92538 2.125,18.71875 2.125,18.71875 2.18625,6.3025 13.3125,14.40625 13.3125,14.40625 2.745,2.6425 3.6875,7.21875 3.6875,7.21875 C 422.99125,770.71875 406.625,793 406.625,793 c -0.2025,-4.98 1.625,-8.34375 1.625,-8.34375 11.6875,-21.1425 -2.96875,-34.96875 -2.96875,-34.96875 -14.23,18.805 -1.8125,33.25 -1.8125,33.25 1.93125,3.5575 1.09375,12.6875 1.09375,12.6875 -4.675,7.015 -21.03125,20.65625 -21.03125,20.65625 l 0.0937,-0.625 c 2.0325,-6.20125 3.96875,-8.4375 3.96875,-8.4375 13.62,-15.95875 0.3125,-34.96875 0.3125,-34.96875 -12.60375,14.18 -7.21875,31.40625 -7.21875,31.40625 3.455,8.1825 -0.3125,13.9375 -0.3125,13.9375 -6.25125,7.41875 -25.71875,15.75 -25.71875,15.75 3.355,-3.96375 7.4375,-7.71875 7.4375,-7.71875 14.6375,-11.63875 7.21875,-32.53125 7.21875,-32.53125 -19.05875,10.72375 -14.34375,32.9375 -14.34375,32.9375 -0.60875,8.03 -6.28125,10.0625 -6.28125,10.0625 -8.335,3.6575 -20.34375,6.1875 -20.34375,6.1875 1.21875,-2.23625 3.34375,-2.9375 3.34375,-2.9375 20.73625,-11.68875 14.65625,-29.78125 14.65625,-29.78125 -19.61625,7.5225 -19.125,29.46875 -19.125,29.46875 -0.13608,2.98706 -1.83968,4.04763 -2.96875,4.4375 l 0,4.96875 c 5.01269,1.28942 11.3125,5.25 11.3125,5.25 25.615,13.62 38.53125,-2.75 38.53125,-2.75 -15.755,-12.60375 -29.5,-4.78125 -29.5,-4.78125 -10.3675,4.47375 -16.75,0.5 -16.75,0.5 6.2,-0.91625 26,-8.53125 26,-8.53125 2.6425,-1.0175 16.59375,1.3125 16.59375,1.3125 33.34,8.335 42.375,-10.0625 42.375,-10.0625 -18.09375,-11.99375 -42.375,5 -42.375,5 -4.57375,1.93125 -11,1.09375 -11,1.09375 10.265,-3.8625 26.9375,-16.5625 26.9375,-16.5625 3.355,-2.3375 16.78125,-1.625 16.78125,-1.625 30.08875,-0.10125 34.25,-23.15625 34.25,-23.15625 -26.0225,-0.61125 -34.0625,16.4375 -34.0625,16.4375 -2.54125,5.28625 -13.1875,5.40625 -13.1875,5.40625 9.555,-7.72625 20.625,-21.84375 20.625,-21.84375 4.4725,-2.3375 13.71875,-3.15625 13.71875,-3.15625 28.56125,-6.81 28.15625,-32.625 28.15625,-32.625 -20.635,2.0325 -31,27.625 -31,27.625 -4.37125,4.8775 -9.0625,5.59375 -9.0625,5.59375 4.98,-5.285 14.75,-26.21875 14.75,-26.21875 2.6425,-5.3875 15.75,-12 15.75,-12 C 464.49125,741.96 458.25,718.5 458.25,718.5 c -17.63625,9.708 -19.125,24.375 -19.125,24.375 -1.52375,12.29875 -9.53125,15.875 -9.53125,15.875 2.845,-4.7775 5.6875,-24.40625 5.6875,-24.40625 C 437.41625,728.55 446.46875,719 446.46875,719 c 3.2525,-3.15062 7.8125,-8.4375 7.8125,-8.4375 C 464.64875,698.66975 455,678.25 455,678.25 c -17.28,15.14525 -13.625,38.09375 -13.625,38.09375 -0.1025,5.18437 -5.375,12 -5.375,12 2.23625,-12.50262 -1.125,-34.0625 -1.125,-34.0625 l 1.40625,-4.5625 2.03125,-5.375 c 2.0325,-5.387 3.25,-6.3125 3.25,-6.3125 15.24625,-16.06025 -1.625,-37 -1.625,-37 -5.18375,6.20062 -7.8125,17.59375 -7.8125,17.59375 -1.83,9.148 3.25,22.34375 3.25,22.34375 0.8125,3.35387 -1.53125,8.65625 -1.53125,8.65625 -2.74375,-18.29588 -13.5,-35.78125 -13.5,-35.78125 0.1025,-3.45638 1.90625,-5.5 1.90625,-5.5 10.215,-17.99125 -8.3125,-38.71875 -8.3125,-38.71875 -7.82625,24.80162 3.34375,36.6875 3.34375,36.6875 3.55875,4.26874 2.34375,6.71875 2.34375,6.71875 -10.47,-17.8895 -22.25,-26.53125 -22.25,-26.53125 -3.79945,-20.23359 -18.95634,-21.73791 -24.5,-21.59375 z"
         id="path3384" />
      <path
         sodipodi:type="arc"
         style="fill:#ffec00;fill-opacity:1;stroke:none"
         id="path3386"
         sodipodi:cx="325.41116"
         sodipodi:cy="846.1806"
         sodipodi:rx="1.4994452"
         sodipodi:ry="2.0992234"
         d="m 326.91061,846.1806 c 0,1.15937 -0.67133,2.09923 -1.49945,2.09923 -0.82812,0 -1.49944,-0.93986 -1.49944,-2.09923 0,-1.15937 0.67132,-2.09922 1.49944,-2.09922 0.82812,0 1.49945,0.93985 1.49945,2.09922 z"
         transform="matrix(1,0,0,1.1832706,-1.1522053,-155.30303)" />
    </g>
    <g
       style="fill:#ececec;fill-opacity:1"
       id="g3388"
       transform="matrix(0.49023183,0.13135722,0.13135722,-0.49023183,11.192949,1128.6481)"
       inkscape:export-xdpi="90"
       inkscape:export-ydpi="90">
      <path
         id="path3390"
         d="m 372.875,604.90625 c -1.27931,0.0333 -2.03125,0.15625 -2.03125,0.15625 1.6775,22.464 25,24.90625 25,24.90625 13.01,11.38426 19.90625,24.375 19.90625,24.375 -3.05,-1.2195 -4.65625,-3.03125 -4.65625,-3.03125 -12.655,-20.53212 -33.84375,-17.09375 -33.84375,-17.09375 8.58875,23.22637 34.125,23.0625 34.125,23.0625 7.065,0.35587 8.96875,5.1875 8.96875,5.1875 5.895,9.75826 9.9375,28.15625 9.9375,28.15625 -1.62625,-1.62663 -3.75,-4.21875 -3.75,-4.21875 -9.86,-26.88475 -30.6875,-25.84375 -30.6875,-25.84375 6.40375,26.73288 27.21875,28.34375 27.21875,28.34375 3.8625,0.8135 8.03125,6.5 8.03125,6.5 2.3375,15.95825 1.34375,28.96875 1.34375,28.96875 -0.10125,-1.01675 -1.75,-3.96875 -1.75,-3.96875 -1.52375,-2.84613 -2.3125,-9.03125 -2.3125,-9.03125 -3.65875,-18.80425 -21.0625,-22.0625 -21.0625,-22.0625 -3.40375,24.29325 21.875,33.40625 21.875,33.40625 7.115,6.303 -2.96875,34 -2.96875,34 -0.2025,-1.01625 -0.59375,-4.78125 -0.59375,-4.78125 2.18625,-29.12163 -20.03125,-33.25 -20.03125,-33.25 -0.15375,13.92538 2.125,18.71875 2.125,18.71875 2.18625,6.3025 13.3125,14.40625 13.3125,14.40625 2.745,2.6425 3.6875,7.21875 3.6875,7.21875 C 422.99125,770.71875 406.625,793 406.625,793 c -0.2025,-4.98 1.625,-8.34375 1.625,-8.34375 11.6875,-21.1425 -2.96875,-34.96875 -2.96875,-34.96875 -14.23,18.805 -1.8125,33.25 -1.8125,33.25 1.93125,3.5575 1.09375,12.6875 1.09375,12.6875 -4.675,7.015 -21.03125,20.65625 -21.03125,20.65625 l 0.0937,-0.625 c 2.0325,-6.20125 3.96875,-8.4375 3.96875,-8.4375 13.62,-15.95875 0.3125,-34.96875 0.3125,-34.96875 -12.60375,14.18 -7.21875,31.40625 -7.21875,31.40625 3.455,8.1825 -0.3125,13.9375 -0.3125,13.9375 -6.25125,7.41875 -25.71875,15.75 -25.71875,15.75 3.355,-3.96375 7.4375,-7.71875 7.4375,-7.71875 14.6375,-11.63875 7.21875,-32.53125 7.21875,-32.53125 -19.05875,10.72375 -14.34375,32.9375 -14.34375,32.9375 -0.60875,8.03 -6.28125,10.0625 -6.28125,10.0625 -8.335,3.6575 -20.34375,6.1875 -20.34375,6.1875 1.21875,-2.23625 3.34375,-2.9375 3.34375,-2.9375 20.73625,-11.68875 14.65625,-29.78125 14.65625,-29.78125 -19.61625,7.5225 -19.125,29.46875 -19.125,29.46875 -0.13608,2.98706 -1.83968,4.04763 -2.96875,4.4375 l 0,4.96875 c 5.01269,1.28942 11.3125,5.25 11.3125,5.25 25.615,13.62 38.53125,-2.75 38.53125,-2.75 -15.755,-12.60375 -29.5,-4.78125 -29.5,-4.78125 -10.3675,4.47375 -16.75,0.5 -16.75,0.5 6.2,-0.91625 26,-8.53125 26,-8.53125 2.6425,-1.0175 16.59375,1.3125 16.59375,1.3125 33.34,8.335 42.375,-10.0625 42.375,-10.0625 -18.09375,-11.99375 -42.375,5 -42.375,5 -4.57375,1.93125 -11,1.09375 -11,1.09375 10.265,-3.8625 26.9375,-16.5625 26.9375,-16.5625 3.355,-2.3375 16.78125,-1.625 16.78125,-1.625 30.08875,-0.10125 34.25,-23.15625 34.25,-23.15625 -26.0225,-0.61125 -34.0625,16.4375 -34.0625,16.4375 -2.54125,5.28625 -13.1875,5.40625 -13.1875,5.40625 9.555,-7.72625 20.625,-21.84375 20.625,-21.84375 4.4725,-2.3375 13.71875,-3.15625 13.71875,-3.15625 28.56125,-6.81 28.15625,-32.625 28.15625,-32.625 -20.635,2.0325 -31,27.625 -31,27.625 -4.37125,4.8775 -9.0625,5.59375 -9.0625,5.59375 4.98,-5.285 14.75,-26.21875 14.75,-26.21875 2.6425,-5.3875 15.75,-12 15.75,-12 C 464.49125,741.96 458.25,718.5 458.25,718.5 c -17.63625,9.708 -19.125,24.375 -19.125,24.375 -1.52375,12.29875 -9.53125,15.875 -9.53125,15.875 2.845,-4.7775 5.6875,-24.40625 5.6875,-24.40625 C 437.41625,728.55 446.46875,719 446.46875,719 c 3.2525,-3.15062 7.8125,-8.4375 7.8125,-8.4375 C 464.64875,698.66975 455,678.25 455,678.25 c -17.28,15.14525 -13.625,38.09375 -13.625,38.09375 -0.1025,5.18437 -5.375,12 -5.375,12 2.23625,-12.50262 -1.125,-34.0625 -1.125,-34.0625 l 1.40625,-4.5625 2.03125,-5.375 c 2.0325,-5.387 3.25,-6.3125 3.25,-6.3125 15.24625,-16.06025 -1.625,-37 -1.625,-37 -5.18375,6.20062 -7.8125,17.59375 -7.8125,17.59375 -1.83,9.148 3.25,22.34375 3.25,22.34375 0.8125,3.35387 -1.53125,8.65625 -1.53125,8.65625 -2.74375,-18.29588 -13.5,-35.78125 -13.5,-35.78125 0.1025,-3.45638 1.90625,-5.5 1.90625,-5.5 10.215,-17.99125 -8.3125,-38.71875 -8.3125,-38.71875 -7.82625,24.80162 3.34375,36.6875 3.34375,36.6875 3.55875,4.26874 2.34375,6.71875 2.34375,6.71875 -10.47,-17.8895 -22.25,-26.53125 -22.25,-26.53125 -3.79945,-20.23359 -18.95634,-21.73791 -24.5,-21.59375 z"
         style="fill:#ececec;fill-opacity:1;fill-rule:nonzero;stroke:none"
         inkscape:connector-curvature="0" />
      <path
         transform="matrix(1,0,0,1.1832706,-1.1522053,-155.30303)"
         d="m 326.91061,846.1806 c 0,1.15937 -0.67133,2.09923 -1.49945,2.09923 -0.82812,0 -1.49944,-0.93986 -1.49944,-2.09923 0,-1.15937 0.67132,-2.09922 1.49944,-2.09922 0.82812,0 1.49945,0.93985 1.49945,2.09922 z"
         sodipodi:ry="2.0992234"
         sodipodi:rx="1.4994452"
         sodipodi:cy="846.1806"
         sodipodi:cx="325.41116"
         id="path3392"
         style="fill:#ececec;fill-opacity:1;stroke:none"
         sodipodi:type="arc" />
    </g>
  </g>
</svg>
